<?xml version="1.0" encoding="UTF-8"?><svg width="250px" id="Layer_2" xmlns="http://www.w3.org/2000/svg" viewBox="0 0 325.81 207.62">
  <defs>
    <style>
      .cls-1 {
        fill: #fdb81d;
      }

      .cls-2 {
        fill: #231f20;
      }
    </style>
  </defs>
  <g id="Layer_1-2">
    <g>
      <path class="cls-1"
        d="M162.77,0c-35.58,0-64.52,28.94-64.52,64.52s28.94,64.52,64.52,64.52,64.52-28.94,64.52-64.52S198.35,0,162.77,0Zm23.64,32.9h6.32v6.32h-6.32v-6.32Zm-6.34,6.35h-5.36v6.35h5.36v6.32h-5.36v47.27l-11.94,10.95-11.94-10.95V51.96h-24.35v-19.08h48.23v.05h5.36v6.32Zm18.99,6.32h-6.32v6.32h-6.32v-6.32h-6.32v-6.32h6.32v6.32h6.32v-6.32h6.32v6.32Z" />
      <g>
        <path class="cls-2" d="M29.95,175.96h-11.11v31.05h-7.74v-31.05H0v-7.62H29.95v7.62Z" />
        <path class="cls-2"
          d="M66.97,207.01h-8.51l-3.04-8.62h-14.15l-3.04,8.62h-8.29l14.81-38.68h7.51l14.7,38.68Zm-14.2-15.97l-2.49-7.02c-.77-2.27-1.55-4.59-1.93-6.02-.39,1.44-1.16,3.76-1.93,6.02l-2.49,7.02h8.84Z" />
        <path class="cls-2"
          d="M106.03,207.01h-9.23l-3.48-5.86c-1.38-2.32-3.48-6.13-4.2-7.57-.66,1.44-2.76,5.14-4.2,7.57l-3.48,5.86h-9.23l12.27-19.78-11.71-18.9h9.23l2.93,4.97c1.38,2.32,3.48,6.13,4.2,7.57,.72-1.44,2.76-5.14,4.2-7.57l2.93-4.97h9.23l-11.77,18.9,12.32,19.78Z" />
        <path class="cls-2" d="M122.33,207.01h-7.74v-38.68h7.74v38.68Z" />
        <path class="cls-2"
          d="M178.3,195.3c0,7.35-4.64,12.32-15.2,12.32-6.46,0-12.1-2.71-15.03-7.02l5.58-4.97c2.71,3.15,6.19,4.42,9.89,4.42,4.59,0,6.74-1.27,6.74-4.2,0-2.49-1.33-3.59-8.62-5.25-7.13-1.66-12.1-3.92-12.1-11.55,0-7.02,6.19-11.33,13.81-11.33,6.02,0,10.44,2.27,14.09,6.08l-5.58,5.42c-2.49-2.54-5.25-3.98-8.79-3.98-4.14,0-5.53,1.77-5.53,3.48,0,2.43,1.66,3.21,7.79,4.64,6.13,1.44,12.93,3.54,12.93,11.93Z" />
        <path class="cls-2" d="M213.05,175.96h-11.11v31.05h-7.74v-31.05h-11.11v-7.62h29.95v7.62Z" />
        <path class="cls-2"
          d="M250.07,207.01h-8.51l-3.04-8.62h-14.15l-3.04,8.62h-8.29l14.81-38.68h7.51l14.7,38.68Zm-14.2-15.97l-2.49-7.02c-.77-2.27-1.55-4.59-1.93-6.02-.39,1.44-1.16,3.76-1.93,6.02l-2.49,7.02h8.84Z" />
        <path class="cls-2"
          d="M291.5,207.01h-9.28l-10.5-18.68-6.19,7.29v11.38h-7.74v-38.68h7.74v11c0,1.44-.06,4.92-.11,6.13,.55-.88,1.99-2.65,3.04-3.92l10.83-13.21h9.34l-11.33,13.37,14.2,25.31Z" />
        <path class="cls-2"
          d="M325.81,207.01h-27.68v-38.68h26.85v7.57h-19.12v6.69h11.11v7.51h-11.11v9.34h19.95v7.57Z" />
      </g>
    </g>
  </g>
</svg>
